<svg width="292" height="37" viewBox="0 0 292 37" fill="none" xmlns="http://www.w3.org/2000/svg">
<path d="M223.954 13.2858H218.295V34.2885H223.954V13.2858Z" fill="#26FF88"/>
<path d="M223.954 7.19312H218.295V11.8604H223.954V7.19312Z" fill="#26FF88"/>
<path d="M49.2648 13.2593H43.606V34.2885L49.2648 23.2833H55.4147C55.8506 23.2836 56.2802 23.1789 56.667 22.9781C57.0539 22.7773 57.3866 22.4863 57.6371 22.1297L60.2443 18.4304H49.2648V13.2593Z" fill="#26FF88"/>
<path d="M43.606 12.0527H57.9688C58.4038 12.053 58.8324 11.9483 59.2182 11.7475C59.604 11.5466 59.9355 11.2556 60.1846 10.8992L62.7918 7.19983H43.606V12.0527Z" fill="#26FF88"/>
<path d="M110.451 12.0129H124.124C124.56 12.012 124.989 11.9069 125.376 11.7061C125.762 11.5054 126.095 11.215 126.346 10.8593L128.927 7.19312H110.451V12.0129Z" fill="#26FF88"/>
<path d="M124.058 29.4687H116.097V22.7927H125.464V17.9332H116.097V13.2593H110.438V34.2885H128.848L126.274 30.6356C126.025 30.2775 125.694 29.9845 125.308 29.7814C124.923 29.5783 124.494 29.471 124.058 29.4687Z" fill="#26FF88"/>
<path d="M94.2042 19.7894C94.8773 18.4221 95.2031 16.9103 95.1529 15.3873C95.147 14.4149 94.9926 13.4492 94.6952 12.5233C94.3695 11.5224 93.8101 10.6134 93.0632 9.87147C92.1326 8.99643 91.0171 8.34164 89.7992 7.9555C88.0992 7.41753 86.3208 7.16877 84.5383 7.21961H74.9653V11.8604H84.4587C85.2841 11.8391 86.1083 11.9351 86.9067 12.1454C87.467 12.2919 87.9865 12.564 88.4259 12.941C88.7777 13.2647 89.0443 13.67 89.2021 14.1211C89.3564 14.5644 89.4349 15.0306 89.4343 15.5C89.4386 16.0386 89.3739 16.5756 89.2419 17.0978C89.124 17.565 88.8809 17.9913 88.5387 18.3309C88.1468 18.703 87.6713 18.9758 87.1522 19.1264C86.4374 19.3358 85.6942 19.432 84.9497 19.4115H80.5446V13.2592H74.9653V34.2884H80.5446V24.1186H85.8519L89.9319 33.221C90.0727 33.534 90.2996 33.8005 90.5862 33.9895C90.8728 34.1785 91.2073 34.2821 91.5506 34.2884H96.493L90.9867 22.7926C92.3335 22.1326 93.4535 21.0872 94.2042 19.7894Z" fill="#26FF88"/>
<path d="M156.525 29.4687H148.604V22.7927H157.965V17.9332H148.604V13.2593H142.945V34.2885H161.348L158.781 30.6356C158.528 30.2728 158.19 29.9769 157.797 29.7737C157.404 29.5704 156.968 29.4657 156.525 29.4687Z" fill="#26FF88"/>
<path d="M142.912 12.0129H156.565C157 12.0132 157.428 11.9085 157.814 11.7076C158.2 11.5068 158.532 11.2157 158.781 10.8593L161.361 7.19312H142.912V12.0129Z" fill="#26FF88"/>
<path d="M286.945 29.4687H278.984V22.7927H288.351V17.9332H278.984V13.2593H273.325V34.2885H291.735L289.161 30.6356C288.913 30.2767 288.582 29.9831 288.196 29.7799C287.81 29.5767 287.381 29.4699 286.945 29.4687Z" fill="#26FF88"/>
<path d="M289.247 10.8593L291.827 7.19312H273.325V12.0129H287.004C287.444 12.0163 287.877 11.9132 288.268 11.7123C288.658 11.5113 288.994 11.2186 289.247 10.8593Z" fill="#26FF88"/>
<path d="M258.259 19.7894C258.932 18.4221 259.258 16.9103 259.208 15.3873C259.202 14.4149 259.047 13.4492 258.75 12.5233C258.43 11.5198 257.87 10.6095 257.118 9.87147C256.193 8.99898 255.085 8.34433 253.874 7.9555C252.174 7.41753 250.396 7.16877 248.613 7.21961H239.007V11.8604H248.5C249.326 11.8391 250.15 11.9351 250.948 12.1454C251.508 12.2919 252.028 12.564 252.467 12.941C252.819 13.2647 253.086 13.67 253.244 14.1211C253.398 14.5644 253.476 15.0306 253.476 15.5C253.48 16.0386 253.415 16.5756 253.283 17.0978C253.166 17.565 252.922 17.9913 252.58 18.3309C252.188 18.703 251.713 18.9758 251.194 19.1264C250.479 19.3358 249.736 19.432 248.991 19.4115H244.586V13.2592H239.007V34.2884H244.586V24.1186H249.893L253.967 33.221C254.11 33.5391 254.342 33.809 254.635 33.9984C254.928 34.1877 255.27 34.2885 255.619 34.2884H260.561L255.055 22.7926C256.398 22.1324 257.514 21.0868 258.259 19.7894Z" fill="#26FF88"/>
<path d="M202.281 7.19983C201.717 7.22682 201.181 7.44958 200.764 7.82965C200.347 8.20971 200.077 8.72322 199.998 9.28154L195.985 26.028L191.341 7.35894H186.544L193.278 34.3018H198.784L206.148 7.20646H202.267L202.281 7.19983Z" fill="#26FF88"/>
<path d="M181.376 26.0147L176.998 9.33457C176.847 8.76361 176.524 8.25272 176.073 7.87095C175.623 7.48917 175.065 7.25491 174.477 7.19983H170.629L178.457 34.2885H183.811L188.103 16.7399L185.815 7.37883L181.376 26.0147Z" fill="#26FF88"/>
<path d="M9.5331 10.2958H25.455V0H0.245361L6.31557 8.61853C6.67773 9.13571 7.15919 9.55813 7.71924 9.85008C8.27928 10.142 8.90144 10.2949 9.5331 10.2958Z" fill="#26FF88"/>
<path d="M16.9434 37V24.1783C16.9434 24.064 16.9889 23.9544 17.0697 23.8736C17.1506 23.7927 17.2603 23.7473 17.3746 23.7473H25.4417V13.3918H0.431152L16.9434 37Z" fill="#26FF88"/>
</svg>
